<mxfile host="app.diagrams.net" agent="Mozilla/5.0 (Macintosh; Intel Mac OS X 10_15_7) AppleWebKit/537.36 (KHTML, like Gecko) Chrome/131.0.0.0 Safari/537.36" version="25.0.3">
  <diagram name="Page-1" id="ONr78019UGpnIFZ69L0S">
    <mxGraphModel grid="1" page="1" gridSize="10" guides="1" tooltips="1" connect="1" arrows="1" fold="1" pageScale="1" pageWidth="1169" pageHeight="1654" math="0" shadow="0">
      <root>
        <mxCell id="0" />
        <mxCell id="1" parent="0" />
        <mxCell id="GMzx6HALcg0GCYaRPeyI-380" value="High Level Diagram Feature Store in RHOAI" style="rounded=1;whiteSpace=wrap;html=1;labelPosition=center;verticalLabelPosition=top;align=left;verticalAlign=bottom;arcSize=2;fontSize=20;fontStyle=0;fillColor=#f5f5f5;fontColor=#333333;strokeColor=#666666;" vertex="1" parent="1">
          <mxGeometry x="360" y="1213" width="950" height="400" as="geometry" />
        </mxCell>
        <mxCell id="hjxZ7VvLeF_F4KYH3CsX-1" value="Diagram 9: Feature Store" style="rounded=1;whiteSpace=wrap;html=1;labelPosition=center;verticalLabelPosition=top;align=left;verticalAlign=bottom;arcSize=2;fontSize=20;fontStyle=0;fillColor=#f5f5f5;fontColor=#333333;strokeColor=#666666;" vertex="1" parent="1">
          <mxGeometry x="360" y="420" width="1280" height="440" as="geometry" />
        </mxCell>
        <mxCell id="hjxZ7VvLeF_F4KYH3CsX-2" value="redhat-ods-applications" style="group;fillColor=#f8cecc;strokeColor=#b85450;container=0;" connectable="0" vertex="1" parent="1">
          <mxGeometry x="466.53999999999996" y="460" width="316.46" height="380" as="geometry" />
        </mxCell>
        <mxCell id="hjxZ7VvLeF_F4KYH3CsX-3" value="&lt;feature_store project namespace&gt;" style="group;fillColor=#d5e8d4;strokeColor=#82b366;container=0;movable=1;resizable=1;rotatable=1;deletable=1;editable=1;locked=0;connectable=1;" connectable="0" vertex="1" parent="1">
          <mxGeometry x="893" y="460" width="680" height="310" as="geometry" />
        </mxCell>
        <mxCell id="hjxZ7VvLeF_F4KYH3CsX-4" value="" style="group" connectable="0" vertex="1" parent="1">
          <mxGeometry x="533" y="548" width="150" height="72.25" as="geometry" />
        </mxCell>
        <mxCell id="hjxZ7VvLeF_F4KYH3CsX-5" value="Feature Store&amp;nbsp;&lt;div&gt;Controller&lt;/div&gt;" style="shape=process;whiteSpace=wrap;html=1;backgroundOutline=1;" vertex="1" parent="hjxZ7VvLeF_F4KYH3CsX-4">
          <mxGeometry x="10" y="10.25" width="140" height="60" as="geometry" />
        </mxCell>
        <mxCell id="hjxZ7VvLeF_F4KYH3CsX-6" value="" style="aspect=fixed;sketch=0;html=1;dashed=0;whitespace=wrap;verticalLabelPosition=bottom;verticalAlign=top;fillColor=#2875E2;strokeColor=#ffffff;points=[[0.005,0.63,0],[0.1,0.2,0],[0.9,0.2,0],[0.5,0,0],[0.995,0.63,0],[0.72,0.99,0],[0.5,1,0],[0.28,0.99,0]];shape=mxgraph.kubernetes.icon2;prIcon=pod" vertex="1" parent="hjxZ7VvLeF_F4KYH3CsX-4">
          <mxGeometry width="31.25" height="30" as="geometry" />
        </mxCell>
        <mxCell id="hjxZ7VvLeF_F4KYH3CsX-7" value="&lt;font style=&quot;font-size: 14px;&quot;&gt;Dashboard&amp;nbsp;&lt;/font&gt;&lt;div&gt;&lt;i&gt;(diagram 4)&lt;/i&gt;&lt;/div&gt;" style="rounded=0;whiteSpace=wrap;html=1;dashed=1;glass=0;fillColor=#76608a;strokeColor=#432D57;fontColor=#ffffff;shadow=1;" vertex="1" parent="1">
          <mxGeometry x="541.86" y="641" width="138.75" height="63" as="geometry" />
        </mxCell>
        <mxCell id="hjxZ7VvLeF_F4KYH3CsX-8" value="ML Engineer" style="shape=umlActor;verticalLabelPosition=bottom;verticalAlign=top;html=1;outlineConnect=0;" vertex="1" parent="1">
          <mxGeometry x="400" y="590" width="30" height="60" as="geometry" />
        </mxCell>
        <mxCell id="hjxZ7VvLeF_F4KYH3CsX-12" value="" style="group" connectable="0" vertex="1" parent="1">
          <mxGeometry x="1286" y="516.8800000000001" width="90" height="53.119999999999436" as="geometry" />
        </mxCell>
        <mxCell id="hjxZ7VvLeF_F4KYH3CsX-13" value="&lt;div&gt;registry&lt;br&gt;service&lt;/div&gt;" style="shape=hexagon;perimeter=hexagonPerimeter2;whiteSpace=wrap;html=1;fixedSize=1;movable=1;resizable=1;rotatable=1;deletable=1;editable=1;locked=0;connectable=1;" vertex="1" parent="hjxZ7VvLeF_F4KYH3CsX-12">
          <mxGeometry y="5.849999999999454" width="90" height="47.27" as="geometry" />
        </mxCell>
        <mxCell id="hjxZ7VvLeF_F4KYH3CsX-14" value="" style="aspect=fixed;sketch=0;html=1;dashed=0;whitespace=wrap;verticalLabelPosition=bottom;verticalAlign=top;fillColor=#2875E2;strokeColor=#ffffff;points=[[0.005,0.63,0],[0.1,0.2,0],[0.9,0.2,0],[0.5,0,0],[0.995,0.63,0],[0.72,0.99,0],[0.5,1,0],[0.28,0.99,0]];shape=mxgraph.kubernetes.icon2;prIcon=svc;movable=1;resizable=1;rotatable=1;deletable=1;editable=1;locked=0;connectable=1;" vertex="1" parent="hjxZ7VvLeF_F4KYH3CsX-12">
          <mxGeometry x="11" width="14.81016339869281" height="14.218954248366014" as="geometry" />
        </mxCell>
        <mxCell id="hjxZ7VvLeF_F4KYH3CsX-16" value="" style="group" connectable="0" vertex="1" parent="1">
          <mxGeometry x="1422.87" y="516.8800000000001" width="140.13" height="48.44" as="geometry" />
        </mxCell>
        <mxCell id="hjxZ7VvLeF_F4KYH3CsX-17" value="Registry Route" style="shape=step;perimeter=stepPerimeter;whiteSpace=wrap;html=1;fixedSize=1;movable=1;resizable=1;rotatable=1;deletable=1;editable=1;locked=0;connectable=1;flipH=1;rotation=0;" vertex="1" parent="hjxZ7VvLeF_F4KYH3CsX-16">
          <mxGeometry y="10.091666666666665" width="128.46625018845288" height="38.34833333333333" as="geometry" />
        </mxCell>
        <mxCell id="hjxZ7VvLeF_F4KYH3CsX-18" value="" style="aspect=fixed;sketch=0;html=1;dashed=0;whitespace=wrap;verticalLabelPosition=bottom;verticalAlign=top;fillColor=#2875E2;strokeColor=#ffffff;points=[[0.005,0.63,0],[0.1,0.2,0],[0.9,0.2,0],[0.5,0,0],[0.995,0.63,0],[0.72,0.99,0],[0.5,1,0],[0.28,0.99,0]];shape=mxgraph.kubernetes.icon2;prIcon=ing;movable=1;resizable=1;rotatable=1;deletable=1;editable=1;locked=0;connectable=1;" vertex="1" parent="hjxZ7VvLeF_F4KYH3CsX-16">
          <mxGeometry x="121.39387695485975" width="16.20887650056048" height="15.555543666564759" as="geometry" />
        </mxCell>
        <mxCell id="hjxZ7VvLeF_F4KYH3CsX-19" style="edgeStyle=orthogonalEdgeStyle;rounded=0;orthogonalLoop=1;jettySize=auto;html=1;" edge="1" parent="1" source="hjxZ7VvLeF_F4KYH3CsX-13" target="hjxZ7VvLeF_F4KYH3CsX-17">
          <mxGeometry relative="1" as="geometry" />
        </mxCell>
        <mxCell id="hjxZ7VvLeF_F4KYH3CsX-21" value="&lt;i&gt;&lt;font style=&quot;font-size: 10px;&quot;&gt;Custom Resource Definitions (CRDs)&lt;/font&gt;&lt;/i&gt;" style="rounded=1;whiteSpace=wrap;html=1;dashed=1;labelPosition=center;verticalLabelPosition=top;align=center;verticalAlign=bottom;" vertex="1" parent="1">
          <mxGeometry x="907.37" y="500" width="162.63" height="220" as="geometry" />
        </mxCell>
        <mxCell id="hjxZ7VvLeF_F4KYH3CsX-22" value="" style="group" connectable="0" vertex="1" parent="1">
          <mxGeometry x="927" y="558" width="151.05" height="149" as="geometry" />
        </mxCell>
        <mxCell id="hjxZ7VvLeF_F4KYH3CsX-23" value="FeatureStore" style="shape=document;whiteSpace=wrap;html=1;boundedLbl=1;" vertex="1" parent="hjxZ7VvLeF_F4KYH3CsX-22">
          <mxGeometry x="11.420000000000073" y="11.433168316831681" width="120" height="81.87623762376238" as="geometry" />
        </mxCell>
        <mxCell id="hjxZ7VvLeF_F4KYH3CsX-24" value="" style="aspect=fixed;sketch=0;html=1;dashed=0;whitespace=wrap;verticalLabelPosition=bottom;verticalAlign=top;fillColor=#2875E2;strokeColor=#ffffff;points=[[0.005,0.63,0],[0.1,0.2,0],[0.9,0.2,0],[0.5,0,0],[0.995,0.63,0],[0.72,0.99,0],[0.5,1,0],[0.28,0.99,0]];shape=mxgraph.kubernetes.icon2;prIcon=crd" vertex="1" parent="hjxZ7VvLeF_F4KYH3CsX-22">
          <mxGeometry width="26.543762376237623" height="25.485148514851485" as="geometry" />
        </mxCell>
        <mxCell id="hjxZ7VvLeF_F4KYH3CsX-25" style="edgeStyle=orthogonalEdgeStyle;rounded=0;orthogonalLoop=1;jettySize=auto;html=1;entryX=0.146;entryY=0.96;entryDx=0;entryDy=0;entryPerimeter=0;" edge="1" parent="1" source="hjxZ7VvLeF_F4KYH3CsX-7" target="hjxZ7VvLeF_F4KYH3CsX-23">
          <mxGeometry relative="1" as="geometry">
            <Array as="points">
              <mxPoint x="956" y="673" />
            </Array>
            <mxPoint x="936" y="648" as="targetPoint" />
          </mxGeometry>
        </mxCell>
        <mxCell id="hjxZ7VvLeF_F4KYH3CsX-26" value="create" style="edgeLabel;html=1;align=center;verticalAlign=middle;resizable=0;points=[];" connectable="0" vertex="1" parent="hjxZ7VvLeF_F4KYH3CsX-25">
          <mxGeometry x="0.0151" relative="1" as="geometry">
            <mxPoint as="offset" />
          </mxGeometry>
        </mxCell>
        <mxCell id="hjxZ7VvLeF_F4KYH3CsX-27" style="edgeStyle=orthogonalEdgeStyle;rounded=0;orthogonalLoop=1;jettySize=auto;html=1;entryX=0;entryY=0.25;entryDx=0;entryDy=0;" edge="1" parent="1" source="hjxZ7VvLeF_F4KYH3CsX-5" target="hjxZ7VvLeF_F4KYH3CsX-23">
          <mxGeometry relative="1" as="geometry">
            <mxPoint x="937" y="560" as="targetPoint" />
            <Array as="points">
              <mxPoint x="823" y="610" />
              <mxPoint x="823" y="588" />
              <mxPoint x="937" y="588" />
              <mxPoint x="937" y="590" />
            </Array>
          </mxGeometry>
        </mxCell>
        <mxCell id="hjxZ7VvLeF_F4KYH3CsX-28" value="watch" style="edgeLabel;html=1;align=center;verticalAlign=middle;resizable=0;points=[];" connectable="0" vertex="1" parent="hjxZ7VvLeF_F4KYH3CsX-27">
          <mxGeometry x="0.0474" relative="1" as="geometry">
            <mxPoint x="43" y="-16" as="offset" />
          </mxGeometry>
        </mxCell>
        <mxCell id="hjxZ7VvLeF_F4KYH3CsX-29" style="edgeStyle=orthogonalEdgeStyle;rounded=0;orthogonalLoop=1;jettySize=auto;html=1;entryX=0;entryY=0.75;entryDx=0;entryDy=0;" edge="1" parent="1" source="hjxZ7VvLeF_F4KYH3CsX-5" target="hjxZ7VvLeF_F4KYH3CsX-23">
          <mxGeometry relative="1" as="geometry">
            <mxPoint x="933" y="630" as="targetPoint" />
            <Array as="points">
              <mxPoint x="823" y="610" />
              <mxPoint x="823" y="631" />
            </Array>
          </mxGeometry>
        </mxCell>
        <mxCell id="hjxZ7VvLeF_F4KYH3CsX-30" value="manage" style="edgeLabel;html=1;align=center;verticalAlign=middle;resizable=0;points=[];" connectable="0" vertex="1" parent="hjxZ7VvLeF_F4KYH3CsX-29">
          <mxGeometry x="0.112" y="-1" relative="1" as="geometry">
            <mxPoint x="44" y="9" as="offset" />
          </mxGeometry>
        </mxCell>
        <mxCell id="hjxZ7VvLeF_F4KYH3CsX-33" value="" style="group" connectable="0" vertex="1" parent="1">
          <mxGeometry x="1110.17" y="570" width="135.82999999999993" height="71" as="geometry" />
        </mxCell>
        <mxCell id="hjxZ7VvLeF_F4KYH3CsX-34" value="Feature Store Servers&lt;div&gt;Deployment&lt;/div&gt;" style="rounded=0;whiteSpace=wrap;html=1;movable=1;resizable=1;rotatable=1;deletable=1;editable=1;locked=0;connectable=1;container=0;" vertex="1" parent="hjxZ7VvLeF_F4KYH3CsX-33">
          <mxGeometry x="15.829999999999927" y="11" width="120" height="60" as="geometry" />
        </mxCell>
        <mxCell id="hjxZ7VvLeF_F4KYH3CsX-35" value="" style="aspect=fixed;sketch=0;html=1;dashed=0;whitespace=wrap;verticalLabelPosition=bottom;verticalAlign=top;fillColor=#2875E2;strokeColor=#ffffff;points=[[0.005,0.63,0],[0.1,0.2,0],[0.9,0.2,0],[0.5,0,0],[0.995,0.63,0],[0.72,0.99,0],[0.5,1,0],[0.28,0.99,0]];shape=mxgraph.kubernetes.icon2;prIcon=pod;movable=1;resizable=1;rotatable=1;deletable=1;editable=1;locked=0;connectable=1;container=0;" vertex="1" parent="hjxZ7VvLeF_F4KYH3CsX-33">
          <mxGeometry width="31.25" height="30" as="geometry" />
        </mxCell>
        <mxCell id="hjxZ7VvLeF_F4KYH3CsX-36" value="" style="group" connectable="0" vertex="1" parent="1">
          <mxGeometry x="1286" y="589.8800000000001" width="90" height="53.119999999999436" as="geometry" />
        </mxCell>
        <mxCell id="hjxZ7VvLeF_F4KYH3CsX-37" value="&lt;div&gt;offline&lt;br&gt;service&lt;/div&gt;" style="shape=hexagon;perimeter=hexagonPerimeter2;whiteSpace=wrap;html=1;fixedSize=1;movable=1;resizable=1;rotatable=1;deletable=1;editable=1;locked=0;connectable=1;" vertex="1" parent="hjxZ7VvLeF_F4KYH3CsX-36">
          <mxGeometry y="5.849999999999454" width="90" height="47.27" as="geometry" />
        </mxCell>
        <mxCell id="hjxZ7VvLeF_F4KYH3CsX-38" value="" style="aspect=fixed;sketch=0;html=1;dashed=0;whitespace=wrap;verticalLabelPosition=bottom;verticalAlign=top;fillColor=#2875E2;strokeColor=#ffffff;points=[[0.005,0.63,0],[0.1,0.2,0],[0.9,0.2,0],[0.5,0,0],[0.995,0.63,0],[0.72,0.99,0],[0.5,1,0],[0.28,0.99,0]];shape=mxgraph.kubernetes.icon2;prIcon=svc;movable=1;resizable=1;rotatable=1;deletable=1;editable=1;locked=0;connectable=1;" vertex="1" parent="hjxZ7VvLeF_F4KYH3CsX-36">
          <mxGeometry x="11" width="14.81016339869281" height="14.218954248366014" as="geometry" />
        </mxCell>
        <mxCell id="hjxZ7VvLeF_F4KYH3CsX-39" value="" style="group" connectable="0" vertex="1" parent="1">
          <mxGeometry x="1422.87" y="589.7799999999997" width="140.13" height="48.44" as="geometry" />
        </mxCell>
        <mxCell id="hjxZ7VvLeF_F4KYH3CsX-40" value="Offline Route" style="shape=step;perimeter=stepPerimeter;whiteSpace=wrap;html=1;fixedSize=1;movable=1;resizable=1;rotatable=1;deletable=1;editable=1;locked=0;connectable=1;flipH=1;rotation=0;" vertex="1" parent="hjxZ7VvLeF_F4KYH3CsX-39">
          <mxGeometry y="10.091666666666665" width="128.46625018845288" height="38.34833333333333" as="geometry" />
        </mxCell>
        <mxCell id="hjxZ7VvLeF_F4KYH3CsX-41" value="" style="aspect=fixed;sketch=0;html=1;dashed=0;whitespace=wrap;verticalLabelPosition=bottom;verticalAlign=top;fillColor=#2875E2;strokeColor=#ffffff;points=[[0.005,0.63,0],[0.1,0.2,0],[0.9,0.2,0],[0.5,0,0],[0.995,0.63,0],[0.72,0.99,0],[0.5,1,0],[0.28,0.99,0]];shape=mxgraph.kubernetes.icon2;prIcon=ing;movable=1;resizable=1;rotatable=1;deletable=1;editable=1;locked=0;connectable=1;" vertex="1" parent="hjxZ7VvLeF_F4KYH3CsX-39">
          <mxGeometry x="121.39387695485975" width="16.20887650056048" height="15.555543666564759" as="geometry" />
        </mxCell>
        <mxCell id="hjxZ7VvLeF_F4KYH3CsX-46" value="" style="group" connectable="0" vertex="1" parent="1">
          <mxGeometry x="1286" y="665.9400000000005" width="90" height="53.119999999999436" as="geometry" />
        </mxCell>
        <mxCell id="hjxZ7VvLeF_F4KYH3CsX-47" value="&lt;div&gt;online&lt;br&gt;service&lt;/div&gt;" style="shape=hexagon;perimeter=hexagonPerimeter2;whiteSpace=wrap;html=1;fixedSize=1;movable=1;resizable=1;rotatable=1;deletable=1;editable=1;locked=0;connectable=1;" vertex="1" parent="hjxZ7VvLeF_F4KYH3CsX-46">
          <mxGeometry y="5.849999999999454" width="90" height="47.27" as="geometry" />
        </mxCell>
        <mxCell id="hjxZ7VvLeF_F4KYH3CsX-48" value="" style="aspect=fixed;sketch=0;html=1;dashed=0;whitespace=wrap;verticalLabelPosition=bottom;verticalAlign=top;fillColor=#2875E2;strokeColor=#ffffff;points=[[0.005,0.63,0],[0.1,0.2,0],[0.9,0.2,0],[0.5,0,0],[0.995,0.63,0],[0.72,0.99,0],[0.5,1,0],[0.28,0.99,0]];shape=mxgraph.kubernetes.icon2;prIcon=svc;movable=1;resizable=1;rotatable=1;deletable=1;editable=1;locked=0;connectable=1;" vertex="1" parent="hjxZ7VvLeF_F4KYH3CsX-46">
          <mxGeometry x="11" width="14.81016339869281" height="14.218954248366014" as="geometry" />
        </mxCell>
        <mxCell id="hjxZ7VvLeF_F4KYH3CsX-49" value="" style="group" connectable="0" vertex="1" parent="1">
          <mxGeometry x="1422.87" y="668" width="140.13" height="48.44" as="geometry" />
        </mxCell>
        <mxCell id="hjxZ7VvLeF_F4KYH3CsX-50" value="Online Route" style="shape=step;perimeter=stepPerimeter;whiteSpace=wrap;html=1;fixedSize=1;movable=1;resizable=1;rotatable=1;deletable=1;editable=1;locked=0;connectable=1;flipH=1;rotation=0;" vertex="1" parent="hjxZ7VvLeF_F4KYH3CsX-49">
          <mxGeometry y="10.091666666666665" width="128.46625018845288" height="38.34833333333333" as="geometry" />
        </mxCell>
        <mxCell id="hjxZ7VvLeF_F4KYH3CsX-51" value="" style="aspect=fixed;sketch=0;html=1;dashed=0;whitespace=wrap;verticalLabelPosition=bottom;verticalAlign=top;fillColor=#2875E2;strokeColor=#ffffff;points=[[0.005,0.63,0],[0.1,0.2,0],[0.9,0.2,0],[0.5,0,0],[0.995,0.63,0],[0.72,0.99,0],[0.5,1,0],[0.28,0.99,0]];shape=mxgraph.kubernetes.icon2;prIcon=ing;movable=1;resizable=1;rotatable=1;deletable=1;editable=1;locked=0;connectable=1;" vertex="1" parent="hjxZ7VvLeF_F4KYH3CsX-49">
          <mxGeometry x="121.39387695485975" width="16.20887650056048" height="15.555543666564759" as="geometry" />
        </mxCell>
        <mxCell id="hjxZ7VvLeF_F4KYH3CsX-55" value="" style="endArrow=classic;html=1;rounded=0;exitX=1;exitY=0.5;exitDx=0;exitDy=0;entryX=0.976;entryY=0.473;entryDx=0;entryDy=0;entryPerimeter=0;" edge="1" parent="1" source="hjxZ7VvLeF_F4KYH3CsX-37" target="hjxZ7VvLeF_F4KYH3CsX-40">
          <mxGeometry width="50" height="50" relative="1" as="geometry">
            <mxPoint x="1366" y="638" as="sourcePoint" />
            <mxPoint x="1416" y="618" as="targetPoint" />
          </mxGeometry>
        </mxCell>
        <mxCell id="hjxZ7VvLeF_F4KYH3CsX-56" value="" style="endArrow=classic;html=1;rounded=0;exitX=1;exitY=0.75;exitDx=0;exitDy=0;" edge="1" parent="1" source="hjxZ7VvLeF_F4KYH3CsX-47" target="hjxZ7VvLeF_F4KYH3CsX-50">
          <mxGeometry width="50" height="50" relative="1" as="geometry">
            <mxPoint x="1386" y="629" as="sourcePoint" />
            <mxPoint x="1436" y="628" as="targetPoint" />
            <Array as="points">
              <mxPoint x="1376" y="698" />
            </Array>
          </mxGeometry>
        </mxCell>
        <mxCell id="hjxZ7VvLeF_F4KYH3CsX-57" style="edgeStyle=orthogonalEdgeStyle;rounded=0;orthogonalLoop=1;jettySize=auto;html=1;entryX=1;entryY=0.5;entryDx=0;entryDy=0;" edge="1" parent="1">
          <mxGeometry relative="1" as="geometry">
            <mxPoint x="1126" y="625" as="sourcePoint" />
            <mxPoint x="1058.42" y="607.3712871287128" as="targetPoint" />
            <Array as="points">
              <mxPoint x="1126" y="615" />
              <mxPoint x="1106" y="615" />
              <mxPoint x="1106" y="607" />
            </Array>
          </mxGeometry>
        </mxCell>
        <mxCell id="hjxZ7VvLeF_F4KYH3CsX-58" value="owner" style="edgeLabel;html=1;align=center;verticalAlign=middle;resizable=0;points=[];" connectable="0" vertex="1" parent="hjxZ7VvLeF_F4KYH3CsX-57">
          <mxGeometry x="-0.0168" y="-2" relative="1" as="geometry">
            <mxPoint x="1" y="-1" as="offset" />
          </mxGeometry>
        </mxCell>
        <mxCell id="hjxZ7VvLeF_F4KYH3CsX-59" value="Feast Client" style="shape=umlActor;verticalLabelPosition=bottom;verticalAlign=top;html=1;outlineConnect=0;" vertex="1" parent="1">
          <mxGeometry x="1666" y="567" width="30" height="110" as="geometry" />
        </mxCell>
        <mxCell id="hjxZ7VvLeF_F4KYH3CsX-60" style="edgeStyle=orthogonalEdgeStyle;rounded=0;orthogonalLoop=1;jettySize=auto;html=1;endArrow=none;endFill=0;dashed=1;exitX=0.25;exitY=0.1;exitDx=0;exitDy=0;exitPerimeter=0;entryX=1;entryY=0.5;entryDx=0;entryDy=0;" edge="1" parent="1" source="hjxZ7VvLeF_F4KYH3CsX-59" target="hjxZ7VvLeF_F4KYH3CsX-17">
          <mxGeometry relative="1" as="geometry">
            <Array as="points">
              <mxPoint x="1663" y="590" />
              <mxPoint x="1663" y="550" />
              <mxPoint x="1531" y="550" />
            </Array>
            <mxPoint x="1723" y="641" as="sourcePoint" />
            <mxPoint x="1580" y="540" as="targetPoint" />
          </mxGeometry>
        </mxCell>
        <mxCell id="hjxZ7VvLeF_F4KYH3CsX-61" value="remote registry" style="edgeLabel;html=1;align=center;verticalAlign=middle;resizable=0;points=[];" connectable="0" vertex="1" parent="hjxZ7VvLeF_F4KYH3CsX-60">
          <mxGeometry x="-0.1392" y="2" relative="1" as="geometry">
            <mxPoint x="-27" y="-11" as="offset" />
          </mxGeometry>
        </mxCell>
        <mxCell id="GMzx6HALcg0GCYaRPeyI-7" value="" style="endArrow=none;dashed=1;html=1;rounded=0;exitX=1;exitY=0.25;exitDx=0;exitDy=0;entryX=0.5;entryY=0.5;entryDx=0;entryDy=0;entryPerimeter=0;" edge="1" parent="1" target="hjxZ7VvLeF_F4KYH3CsX-59">
          <mxGeometry width="50" height="50" relative="1" as="geometry">
            <mxPoint x="1539.492358658576" y="698.4465041754556" as="sourcePoint" />
            <mxPoint x="1666" y="638.1494200104066" as="targetPoint" />
            <Array as="points" />
          </mxGeometry>
        </mxCell>
        <mxCell id="GMzx6HALcg0GCYaRPeyI-11" value="remote online" style="edgeLabel;html=1;align=center;verticalAlign=middle;resizable=0;points=[];" vertex="1" connectable="0" parent="GMzx6HALcg0GCYaRPeyI-7">
          <mxGeometry x="0.2017" y="4" relative="1" as="geometry">
            <mxPoint x="-6" y="-4" as="offset" />
          </mxGeometry>
        </mxCell>
        <mxCell id="GMzx6HALcg0GCYaRPeyI-8" value="" style="endArrow=none;dashed=1;html=1;rounded=0;exitX=1;exitY=0.5;exitDx=0;exitDy=0;" edge="1" parent="1" source="hjxZ7VvLeF_F4KYH3CsX-40">
          <mxGeometry width="50" height="50" relative="1" as="geometry">
            <mxPoint x="1560" y="640" as="sourcePoint" />
            <mxPoint x="1680" y="620" as="targetPoint" />
            <Array as="points">
              <mxPoint x="1660" y="620" />
            </Array>
          </mxGeometry>
        </mxCell>
        <mxCell id="GMzx6HALcg0GCYaRPeyI-10" value="remote offline" style="edgeLabel;html=1;align=center;verticalAlign=middle;resizable=0;points=[];" vertex="1" connectable="0" parent="GMzx6HALcg0GCYaRPeyI-8">
          <mxGeometry x="0.4592" y="-1" relative="1" as="geometry">
            <mxPoint x="-29" y="-6" as="offset" />
          </mxGeometry>
        </mxCell>
        <mxCell id="GMzx6HALcg0GCYaRPeyI-223" value="Storage" style="rounded=1;whiteSpace=wrap;html=1;fillColor=#DAE8FC;" vertex="1" parent="1">
          <mxGeometry x="376" y="1233" width="100" height="310" as="geometry" />
        </mxCell>
        <mxCell id="GMzx6HALcg0GCYaRPeyI-249" value="Kubernetes / OpenShift" style="rounded=1;whiteSpace=wrap;html=1;fillColor=#d5e8d4;strokeColor=#82b366;" vertex="1" parent="1">
          <mxGeometry x="369" y="1559" width="936" height="50" as="geometry" />
        </mxCell>
        <mxCell id="GMzx6HALcg0GCYaRPeyI-335" value="" style="edgeStyle=orthogonalEdgeStyle;rounded=0;orthogonalLoop=1;jettySize=auto;html=1;entryX=0;entryY=0.5;entryDx=0;entryDy=0;fillColor=default;" edge="1" parent="1">
          <mxGeometry relative="1" as="geometry">
            <mxPoint x="650.5" y="1373" as="sourcePoint" />
            <mxPoint x="670" y="1373" as="targetPoint" />
          </mxGeometry>
        </mxCell>
        <mxCell id="GMzx6HALcg0GCYaRPeyI-354" value="" style="rounded=0;whiteSpace=wrap;strokeColor=#6c8ebf;align=center;verticalAlign=middle;fontFamily=Helvetica;fontSize=12;fillColor=#dae8fc;gradientDirection=radial;labelBorderColor=none;labelBackgroundColor=none;html=1;" vertex="1" parent="1">
          <mxGeometry x="500" y="1303" width="780" height="170" as="geometry" />
        </mxCell>
        <mxCell id="GMzx6HALcg0GCYaRPeyI-355" value="" style="edgeStyle=orthogonalEdgeStyle;rounded=0;orthogonalLoop=1;jettySize=auto;html=1;entryX=0;entryY=0.5;entryDx=0;entryDy=0;fillColor=default;" edge="1" parent="1" source="GMzx6HALcg0GCYaRPeyI-356" target="GMzx6HALcg0GCYaRPeyI-362">
          <mxGeometry relative="1" as="geometry">
            <mxPoint x="690" y="1386.5" as="targetPoint" />
          </mxGeometry>
        </mxCell>
        <mxCell id="GMzx6HALcg0GCYaRPeyI-356" value="Transform" style="shape=rectangle;strokeColor=#000000;fillColor=#DAE8FC;fontSize=11;" vertex="1" parent="1">
          <mxGeometry x="610" y="1366.5" width="60.5" height="40" as="geometry" />
        </mxCell>
        <mxCell id="GMzx6HALcg0GCYaRPeyI-357" value="" style="edgeStyle=orthogonalEdgeStyle;rounded=0;orthogonalLoop=1;jettySize=auto;html=1;entryX=0.5;entryY=0;entryDx=0;entryDy=0;" edge="1" parent="1" source="GMzx6HALcg0GCYaRPeyI-358" target="GMzx6HALcg0GCYaRPeyI-356">
          <mxGeometry relative="1" as="geometry" />
        </mxCell>
        <mxCell id="GMzx6HALcg0GCYaRPeyI-358" value="&lt;span style=&quot;text-align: left;&quot;&gt;Batch source&lt;/span&gt;" style="strokeWidth=2;html=1;shape=mxgraph.flowchart.database;whiteSpace=wrap;fillColor=#DAE8FC;fontSize=7;" vertex="1" parent="1">
          <mxGeometry x="549.5" y="1308" width="41" height="49" as="geometry" />
        </mxCell>
        <mxCell id="GMzx6HALcg0GCYaRPeyI-359" value="" style="edgeStyle=orthogonalEdgeStyle;rounded=0;orthogonalLoop=1;jettySize=auto;html=1;entryX=0.5;entryY=1;entryDx=0;entryDy=0;" edge="1" parent="1" source="GMzx6HALcg0GCYaRPeyI-360" target="GMzx6HALcg0GCYaRPeyI-356">
          <mxGeometry relative="1" as="geometry">
            <Array as="points">
              <mxPoint x="640" y="1432.5" />
            </Array>
          </mxGeometry>
        </mxCell>
        <mxCell id="GMzx6HALcg0GCYaRPeyI-360" value="&lt;span style=&quot;text-align: left;&quot;&gt;On-demand datasource&lt;/span&gt;" style="strokeWidth=2;html=1;shape=mxgraph.flowchart.database;whiteSpace=wrap;fillColor=#DAE8FC;fontSize=6;" vertex="1" parent="1">
          <mxGeometry x="549.5" y="1417" width="41" height="47" as="geometry" />
        </mxCell>
        <mxCell id="GMzx6HALcg0GCYaRPeyI-361" value="&lt;span style=&quot;text-wrap-mode: nowrap;&quot;&gt;Stream&lt;/span&gt;&lt;div&gt;&lt;span style=&quot;text-wrap-mode: nowrap;&quot;&gt;&amp;nbsp;Sources&lt;/span&gt;&lt;/div&gt;" style="strokeWidth=2;html=1;shape=mxgraph.flowchart.database;whiteSpace=wrap;fontSize=8;fillColor=#DAE8FC;" vertex="1" parent="1">
          <mxGeometry x="549.5" y="1362" width="41" height="49" as="geometry" />
        </mxCell>
        <mxCell id="GMzx6HALcg0GCYaRPeyI-362" value="Feast Feature Store" style="shape=rectangle;fillColor=#DAE8FC;strokeColor=#666666;strokeWidth=2;horizontal=1;verticalAlign=bottom;fontColor=#333333;labelBackgroundColor=none;labelBorderColor=none;textShadow=0;labelPosition=center;verticalLabelPosition=top;align=center;fontStyle=1;fontSize=16;" vertex="1" parent="1">
          <mxGeometry x="710" y="1336.5" width="452" height="100" as="geometry" />
        </mxCell>
        <mxCell id="GMzx6HALcg0GCYaRPeyI-363" value="&lt;span style=&quot;font-size: 11px;&quot;&gt;Offline Server&lt;/span&gt;" style="text;html=1;align=center;verticalAlign=middle;resizable=0;points=[];autosize=1;strokeColor=none;fillColor=none;" vertex="1" parent="1">
          <mxGeometry x="725.3" y="1347" width="90" height="30" as="geometry" />
        </mxCell>
        <mxCell id="GMzx6HALcg0GCYaRPeyI-364" value="&lt;span style=&quot;font-size: 11px;&quot;&gt;Online Server&lt;/span&gt;" style="text;html=1;align=center;verticalAlign=middle;resizable=0;points=[];autosize=1;strokeColor=none;fillColor=none;" vertex="1" parent="1">
          <mxGeometry x="1034.3" y="1345.5" width="90" height="30" as="geometry" />
        </mxCell>
        <mxCell id="GMzx6HALcg0GCYaRPeyI-365" value="" style="edgeStyle=orthogonalEdgeStyle;rounded=0;orthogonalLoop=1;jettySize=auto;html=1;entryX=0;entryY=0.5;entryDx=0;entryDy=0;" edge="1" parent="1" source="GMzx6HALcg0GCYaRPeyI-366" target="GMzx6HALcg0GCYaRPeyI-371">
          <mxGeometry relative="1" as="geometry">
            <mxPoint x="870" y="1396.5" as="targetPoint" />
          </mxGeometry>
        </mxCell>
        <mxCell id="GMzx6HALcg0GCYaRPeyI-366" value="" style="rounded=0;whiteSpace=wrap;html=1;fillColor=#DAE8FC;" vertex="1" parent="1">
          <mxGeometry x="726.3" y="1372" width="90" height="45" as="geometry" />
        </mxCell>
        <mxCell id="GMzx6HALcg0GCYaRPeyI-367" value="offline store" style="ellipse;whiteSpace=wrap;html=1;fontSize=10;fillColor=#DAE8FC;" vertex="1" parent="1">
          <mxGeometry x="736.3" y="1381.5" width="70" height="30" as="geometry" />
        </mxCell>
        <mxCell id="GMzx6HALcg0GCYaRPeyI-368" value="" style="edgeStyle=orthogonalEdgeStyle;rounded=0;orthogonalLoop=1;jettySize=auto;html=1;entryX=1;entryY=0.5;entryDx=0;entryDy=0;" edge="1" parent="1" source="GMzx6HALcg0GCYaRPeyI-369" target="GMzx6HALcg0GCYaRPeyI-371">
          <mxGeometry relative="1" as="geometry">
            <mxPoint x="980" y="1396.5" as="targetPoint" />
          </mxGeometry>
        </mxCell>
        <mxCell id="GMzx6HALcg0GCYaRPeyI-369" value="" style="rounded=0;whiteSpace=wrap;html=1;fillColor=#DAE8FC;" vertex="1" parent="1">
          <mxGeometry x="1036.3" y="1372" width="90" height="45" as="geometry" />
        </mxCell>
        <mxCell id="GMzx6HALcg0GCYaRPeyI-370" value="online store" style="ellipse;whiteSpace=wrap;html=1;fontSize=11;fillColor=#DAE8FC;" vertex="1" parent="1">
          <mxGeometry x="1046.3" y="1381.5" width="70" height="30" as="geometry" />
        </mxCell>
        <mxCell id="GMzx6HALcg0GCYaRPeyI-371" value="" style="rounded=0;whiteSpace=wrap;html=1;fillColor=#DAE8FC;" vertex="1" parent="1">
          <mxGeometry x="878" y="1372" width="90" height="45" as="geometry" />
        </mxCell>
        <mxCell id="GMzx6HALcg0GCYaRPeyI-372" value="feature&amp;nbsp;&lt;div&gt;registry&lt;/div&gt;" style="ellipse;whiteSpace=wrap;html=1;fontSize=11;fillColor=#DAE8FC;" vertex="1" parent="1">
          <mxGeometry x="885.3" y="1381.5" width="74.7" height="30" as="geometry" />
        </mxCell>
        <mxCell id="GMzx6HALcg0GCYaRPeyI-373" value="" style="endArrow=classic;html=1;rounded=0;" edge="1" parent="1" source="GMzx6HALcg0GCYaRPeyI-361">
          <mxGeometry width="50" height="50" relative="1" as="geometry">
            <mxPoint x="560" y="1436.5" as="sourcePoint" />
            <mxPoint x="610" y="1386.5" as="targetPoint" />
          </mxGeometry>
        </mxCell>
        <mxCell id="GMzx6HALcg0GCYaRPeyI-374" value="&lt;span style=&quot;font-size: 11px;&quot;&gt;Registry Server&lt;/span&gt;" style="text;html=1;align=center;verticalAlign=middle;resizable=0;points=[];autosize=1;strokeColor=none;fillColor=none;" vertex="1" parent="1">
          <mxGeometry x="872" y="1347" width="100" height="30" as="geometry" />
        </mxCell>
        <mxCell id="GMzx6HALcg0GCYaRPeyI-385" style="edgeStyle=orthogonalEdgeStyle;rounded=0;orthogonalLoop=1;jettySize=auto;html=1;fontFamily=Helvetica;fontSize=12;fontColor=default;entryX=0.5;entryY=1;entryDx=0;entryDy=0;" edge="1" parent="1">
          <mxGeometry relative="1" as="geometry">
            <mxPoint x="1127" y="1393" as="sourcePoint" />
            <mxPoint x="1217" y="1366.5" as="targetPoint" />
            <Array as="points">
              <mxPoint x="1127" y="1393" />
              <mxPoint x="1217" y="1393" />
            </Array>
          </mxGeometry>
        </mxCell>
        <mxCell id="GMzx6HALcg0GCYaRPeyI-377" value="Online Features&#xa;for realtime &#xa;model inference" style="shape=rectangle;strokeColor=#000000;fontSize=8;verticalAlign=top;fillColor=#DAE8FC;" vertex="1" parent="1">
          <mxGeometry x="1175" y="1328" width="90" height="38.5" as="geometry" />
        </mxCell>
        <mxCell id="GMzx6HALcg0GCYaRPeyI-383" value="" style="edgeStyle=orthogonalEdgeStyle;rounded=0;orthogonalLoop=1;jettySize=auto;html=1;fontFamily=Helvetica;fontSize=12;fontColor=default;" edge="1" parent="1" target="GMzx6HALcg0GCYaRPeyI-378">
          <mxGeometry relative="1" as="geometry">
            <mxPoint x="770" y="1417" as="sourcePoint" />
            <Array as="points">
              <mxPoint x="771" y="1417" />
              <mxPoint x="771" y="1423" />
            </Array>
          </mxGeometry>
        </mxCell>
        <mxCell id="GMzx6HALcg0GCYaRPeyI-398" style="edgeStyle=orthogonalEdgeStyle;rounded=0;orthogonalLoop=1;jettySize=auto;html=1;fontFamily=Helvetica;fontSize=12;fontColor=default;strokeWidth=2;fillColor=#60a917;strokeColor=#2D7600;" edge="1" parent="1" source="GMzx6HALcg0GCYaRPeyI-378" target="GMzx6HALcg0GCYaRPeyI-230">
          <mxGeometry relative="1" as="geometry">
            <Array as="points">
              <mxPoint x="1220" y="1463" />
              <mxPoint x="715" y="1463" />
            </Array>
          </mxGeometry>
        </mxCell>
        <mxCell id="GMzx6HALcg0GCYaRPeyI-378" value="Offline Features&#xa;for model training &#xa;/ batch scoring" style="shape=rectangle;strokeColor=#000000;verticalAlign=top;fontSize=8;fillColor=#DAE8FC;" vertex="1" parent="1">
          <mxGeometry x="1175" y="1400" width="85" height="36.5" as="geometry" />
        </mxCell>
        <mxCell id="GMzx6HALcg0GCYaRPeyI-395" value="" style="group" vertex="1" connectable="0" parent="1">
          <mxGeometry x="504" y="1228" width="796" height="50" as="geometry" />
        </mxCell>
        <mxCell id="GMzx6HALcg0GCYaRPeyI-227" value="Dashboard" style="rounded=1;whiteSpace=wrap;html=1;fillColor=#E1D5E7;" vertex="1" parent="GMzx6HALcg0GCYaRPeyI-395">
          <mxGeometry x="411.00653594771245" width="384.9934640522876" height="50" as="geometry" />
        </mxCell>
        <mxCell id="GMzx6HALcg0GCYaRPeyI-394" value="" style="group" vertex="1" connectable="0" parent="GMzx6HALcg0GCYaRPeyI-395">
          <mxGeometry width="364.18300653594775" height="50" as="geometry" />
        </mxCell>
        <mxCell id="GMzx6HALcg0GCYaRPeyI-224" value="Jupyter Notebooks" style="rounded=1;whiteSpace=wrap;html=1;fillColor=#E1D5E7;" vertex="1" parent="GMzx6HALcg0GCYaRPeyI-394">
          <mxGeometry width="166.48366013071896" height="50" as="geometry" />
        </mxCell>
        <mxCell id="GMzx6HALcg0GCYaRPeyI-225" value="API Client" style="rounded=1;whiteSpace=wrap;html=1;fillColor=#E1D5E7;" vertex="1" parent="GMzx6HALcg0GCYaRPeyI-394">
          <mxGeometry x="197.69934640522877" width="166.48366013071896" height="50" as="geometry" />
        </mxCell>
        <mxCell id="GMzx6HALcg0GCYaRPeyI-402" style="edgeStyle=orthogonalEdgeStyle;rounded=0;orthogonalLoop=1;jettySize=auto;html=1;fontFamily=Helvetica;fontSize=12;fontColor=default;strokeWidth=2;entryX=0.177;entryY=0.025;entryDx=0;entryDy=0;entryPerimeter=0;exitX=0.177;exitY=0.025;exitDx=0;exitDy=0;exitPerimeter=0;fillColor=#60a917;strokeColor=#2D7600;" edge="1" parent="1" target="GMzx6HALcg0GCYaRPeyI-362">
          <mxGeometry relative="1" as="geometry">
            <mxPoint x="558" y="1280" as="sourcePoint" />
            <mxPoint x="909" y="1336.5" as="targetPoint" />
            <Array as="points">
              <mxPoint x="558" y="1293" />
              <mxPoint x="790" y="1293" />
            </Array>
          </mxGeometry>
        </mxCell>
        <mxCell id="GMzx6HALcg0GCYaRPeyI-404" value="" style="edgeStyle=orthogonalEdgeStyle;rounded=0;orthogonalLoop=1;jettySize=auto;html=1;fontFamily=Helvetica;fontSize=12;fontColor=default;strokeWidth=2;fillColor=#60a917;strokeColor=#2D7600;" edge="1" parent="1">
          <mxGeometry relative="1" as="geometry">
            <mxPoint x="1200" y="1279" as="sourcePoint" />
            <mxPoint x="1041" y="1336.5" as="targetPoint" />
            <Array as="points">
              <mxPoint x="1200" y="1279" />
              <mxPoint x="1200" y="1293" />
              <mxPoint x="1041" y="1293" />
            </Array>
          </mxGeometry>
        </mxCell>
        <mxCell id="GMzx6HALcg0GCYaRPeyI-406" value="" style="endArrow=none;html=1;rounded=0;fontFamily=Helvetica;fontSize=12;fontColor=default;exitX=0.999;exitY=0.304;exitDx=0;exitDy=0;exitPerimeter=0;fillColor=#e1d5e7;strokeColor=#9673a6;strokeWidth=2;" edge="1" parent="1">
          <mxGeometry width="50" height="50" relative="1" as="geometry">
            <mxPoint x="1299.9700000000003" y="1287.574" as="sourcePoint" />
            <mxPoint x="506" y="1288" as="targetPoint" />
          </mxGeometry>
        </mxCell>
        <mxCell id="GMzx6HALcg0GCYaRPeyI-411" value="Control API" style="edgeLabel;html=1;align=center;verticalAlign=middle;resizable=0;points=[];rounded=0;dashed=1;dashPattern=1 4;strokeColor=default;fontFamily=Helvetica;fontSize=12;fontColor=default;fillColor=#FFB366;gradientColor=default;gradientDirection=radial;" connectable="0" vertex="1" parent="GMzx6HALcg0GCYaRPeyI-406">
          <mxGeometry x="-0.0882" y="-1" relative="1" as="geometry">
            <mxPoint as="offset" />
          </mxGeometry>
        </mxCell>
        <mxCell id="GMzx6HALcg0GCYaRPeyI-407" value="" style="endArrow=none;html=1;rounded=0;fontFamily=Helvetica;fontSize=12;fontColor=default;strokeWidth=2;fillColor=#e1d5e7;strokeColor=#9673a6;" edge="1" parent="1">
          <mxGeometry width="50" height="50" relative="1" as="geometry">
            <mxPoint x="530" y="1485" as="sourcePoint" />
            <mxPoint x="1300" y="1297" as="targetPoint" />
            <Array as="points">
              <mxPoint x="1300" y="1485" />
              <mxPoint x="1300" y="1393" />
              <mxPoint x="1300" y="1286" />
            </Array>
          </mxGeometry>
        </mxCell>
        <mxCell id="GMzx6HALcg0GCYaRPeyI-415" value="" style="endArrow=classic;html=1;rounded=0;fontFamily=Helvetica;fontSize=12;fontColor=default;strokeWidth=2;fillColor=#e1d5e7;strokeColor=#9673a6;" edge="1" parent="1">
          <mxGeometry width="50" height="50" relative="1" as="geometry">
            <mxPoint x="1215" y="1484" as="sourcePoint" />
            <mxPoint x="1215" y="1506" as="targetPoint" />
            <Array as="points" />
          </mxGeometry>
        </mxCell>
        <mxCell id="GMzx6HALcg0GCYaRPeyI-416" value="" style="endArrow=classic;html=1;rounded=0;fontFamily=Helvetica;fontSize=12;fontColor=default;strokeWidth=2;fillColor=#e1d5e7;strokeColor=#9673a6;" edge="1" parent="1">
          <mxGeometry width="50" height="50" relative="1" as="geometry">
            <mxPoint x="1054" y="1484" as="sourcePoint" />
            <mxPoint x="1054" y="1506" as="targetPoint" />
            <Array as="points" />
          </mxGeometry>
        </mxCell>
        <mxCell id="GMzx6HALcg0GCYaRPeyI-418" value="" style="endArrow=classic;html=1;rounded=0;fontFamily=Helvetica;fontSize=12;fontColor=default;strokeWidth=2;fillColor=#e1d5e7;strokeColor=#9673a6;" edge="1" parent="1">
          <mxGeometry width="50" height="50" relative="1" as="geometry">
            <mxPoint x="881" y="1484" as="sourcePoint" />
            <mxPoint x="881" y="1506" as="targetPoint" />
            <Array as="points" />
          </mxGeometry>
        </mxCell>
        <mxCell id="GMzx6HALcg0GCYaRPeyI-419" value="" style="endArrow=classic;html=1;rounded=0;fontFamily=Helvetica;fontSize=12;fontColor=default;strokeWidth=2;fillColor=#e1d5e7;strokeColor=#9673a6;" edge="1" parent="1">
          <mxGeometry width="50" height="50" relative="1" as="geometry">
            <mxPoint x="531" y="1485" as="sourcePoint" />
            <mxPoint x="531" y="1507" as="targetPoint" />
            <Array as="points" />
          </mxGeometry>
        </mxCell>
        <mxCell id="GMzx6HALcg0GCYaRPeyI-420" value="" style="endArrow=classic;html=1;rounded=0;fontFamily=Helvetica;fontSize=12;fontColor=default;strokeWidth=2;fillColor=#e1d5e7;strokeColor=#9673a6;" edge="1" parent="1">
          <mxGeometry width="50" height="50" relative="1" as="geometry">
            <mxPoint x="734" y="1484" as="sourcePoint" />
            <mxPoint x="734" y="1506" as="targetPoint" />
            <Array as="points" />
          </mxGeometry>
        </mxCell>
        <mxCell id="GMzx6HALcg0GCYaRPeyI-421" value="" style="endArrow=none;html=1;rounded=0;fontFamily=Helvetica;fontSize=12;fontColor=default;strokeWidth=2;fillColor=#e1d5e7;strokeColor=#9673a6;" edge="1" parent="1">
          <mxGeometry width="50" height="50" relative="1" as="geometry">
            <mxPoint x="505" y="1288" as="sourcePoint" />
            <mxPoint x="505" y="1270" as="targetPoint" />
          </mxGeometry>
        </mxCell>
        <mxCell id="GMzx6HALcg0GCYaRPeyI-426" value="" style="endArrow=none;html=1;rounded=0;fontFamily=Helvetica;fontSize=12;fontColor=default;strokeWidth=2;fillColor=#e1d5e7;strokeColor=#9673a6;" edge="1" parent="1">
          <mxGeometry width="50" height="50" relative="1" as="geometry">
            <mxPoint x="795" y="1289" as="sourcePoint" />
            <mxPoint x="795" y="1274" as="targetPoint" />
          </mxGeometry>
        </mxCell>
        <mxCell id="GMzx6HALcg0GCYaRPeyI-427" value="" style="endArrow=none;html=1;rounded=0;fontFamily=Helvetica;fontSize=12;fontColor=default;strokeWidth=2;fillColor=#e1d5e7;strokeColor=#9673a6;" edge="1" parent="1">
          <mxGeometry width="50" height="50" relative="1" as="geometry">
            <mxPoint x="1300" y="1288" as="sourcePoint" />
            <mxPoint x="1300" y="1273" as="targetPoint" />
          </mxGeometry>
        </mxCell>
        <mxCell id="GMzx6HALcg0GCYaRPeyI-228" value="Notebook Controller" style="rounded=1;whiteSpace=wrap;html=1;fillColor=#DAE8FC;" vertex="1" parent="1">
          <mxGeometry x="499" y="1504" width="130" height="50" as="geometry" />
        </mxCell>
        <mxCell id="bKNS0vbTcXXMM7Cwjh3K-3" value="" style="edgeStyle=orthogonalEdgeStyle;rounded=0;orthogonalLoop=1;jettySize=auto;html=1;" edge="1" parent="1" source="GMzx6HALcg0GCYaRPeyI-229" target="GMzx6HALcg0GCYaRPeyI-248">
          <mxGeometry relative="1" as="geometry" />
        </mxCell>
        <mxCell id="GMzx6HALcg0GCYaRPeyI-229" value="Model Serving" style="rounded=1;whiteSpace=wrap;html=1;fillColor=#DAE8FC;" vertex="1" parent="1">
          <mxGeometry x="981" y="1504" width="145" height="50" as="geometry" />
        </mxCell>
        <mxCell id="GMzx6HALcg0GCYaRPeyI-433" value="" style="edgeStyle=orthogonalEdgeStyle;rounded=0;orthogonalLoop=1;jettySize=auto;html=1;fontFamily=Helvetica;fontSize=12;fontColor=default;" edge="1" parent="1" source="GMzx6HALcg0GCYaRPeyI-230" target="GMzx6HALcg0GCYaRPeyI-248">
          <mxGeometry relative="1" as="geometry" />
        </mxCell>
        <mxCell id="GMzx6HALcg0GCYaRPeyI-230" value="Data Science Pipelines" style="rounded=1;whiteSpace=wrap;html=1;fillColor=#DAE8FC;" vertex="1" parent="1">
          <mxGeometry x="654.5" y="1504" width="134.5" height="50" as="geometry" />
        </mxCell>
        <mxCell id="GMzx6HALcg0GCYaRPeyI-231" value="Distributed Workloads" style="rounded=1;whiteSpace=wrap;html=1;fillColor=#DAE8FC;" vertex="1" parent="1">
          <mxGeometry x="1145" y="1504" width="130" height="50" as="geometry" />
        </mxCell>
        <mxCell id="GMzx6HALcg0GCYaRPeyI-432" value="" style="edgeStyle=orthogonalEdgeStyle;rounded=0;orthogonalLoop=1;jettySize=auto;html=1;fontFamily=Helvetica;fontSize=12;fontColor=default;strokeWidth=2;fillColor=#60a917;strokeColor=#2D7600;exitX=1;exitY=0.5;exitDx=0;exitDy=0;" edge="1" parent="1" source="GMzx6HALcg0GCYaRPeyI-377">
          <mxGeometry relative="1" as="geometry">
            <mxPoint x="1390" y="1348.3" as="sourcePoint" />
            <mxPoint x="999.5" y="1505" as="targetPoint" />
            <Array as="points">
              <mxPoint x="1270" y="1347" />
              <mxPoint x="1270" y="1474" />
              <mxPoint x="1000" y="1474" />
            </Array>
          </mxGeometry>
        </mxCell>
        <mxCell id="GMzx6HALcg0GCYaRPeyI-248" value="Model Registry" style="rounded=1;whiteSpace=wrap;html=1;fillColor=#DAE8FC;" vertex="1" parent="1">
          <mxGeometry x="814" y="1504" width="139" height="50" as="geometry" />
        </mxCell>
        <mxCell id="GMzx6HALcg0GCYaRPeyI-434" style="edgeStyle=orthogonalEdgeStyle;rounded=0;orthogonalLoop=1;jettySize=auto;html=1;entryX=0;entryY=0.5;entryDx=0;entryDy=0;fontFamily=Helvetica;fontSize=12;fontColor=default;" edge="1" parent="1" source="hjxZ7VvLeF_F4KYH3CsX-34" target="hjxZ7VvLeF_F4KYH3CsX-47">
          <mxGeometry relative="1" as="geometry" />
        </mxCell>
        <mxCell id="GMzx6HALcg0GCYaRPeyI-436" value="" style="edgeStyle=orthogonalEdgeStyle;rounded=0;orthogonalLoop=1;jettySize=auto;html=1;fontFamily=Helvetica;fontSize=12;fontColor=default;entryX=0;entryY=0.5;entryDx=0;entryDy=0;" edge="1" parent="1" source="hjxZ7VvLeF_F4KYH3CsX-34" target="hjxZ7VvLeF_F4KYH3CsX-37">
          <mxGeometry relative="1" as="geometry" />
        </mxCell>
        <mxCell id="GMzx6HALcg0GCYaRPeyI-437" style="edgeStyle=orthogonalEdgeStyle;rounded=0;orthogonalLoop=1;jettySize=auto;html=1;entryX=0;entryY=0.5;entryDx=0;entryDy=0;fontFamily=Helvetica;fontSize=12;fontColor=default;" edge="1" parent="1" source="hjxZ7VvLeF_F4KYH3CsX-34" target="hjxZ7VvLeF_F4KYH3CsX-13">
          <mxGeometry relative="1" as="geometry" />
        </mxCell>
      </root>
    </mxGraphModel>
  </diagram>
</mxfile>
